<svg width="744" height="141" viewBox="0 0 744 141" fill="none" xmlns="http://www.w3.org/2000/svg">
<path d="M30.9057 24L0 82.3705L30.9057 140.746H84.7859V136.614H60.6238L31.9119 82.3705L60.6238 28.1322L364.5 24H84.7859H30.9057Z" fill="#F65A5A"/>
<path d="M153.375 70.5C158.312 70.5 162.547 70.7031 166.078 71.1094C169.609 71.5156 172.578 72.125 174.984 72.9375C177.422 73.7188 179.359 74.7031 180.797 75.8906C182.234 77.0781 183.344 78.4375 184.125 79.9688C184.906 81.4688 185.406 83.1562 185.625 85.0312C185.875 86.9062 186 88.9375 186 91.125C186 93.3125 185.797 95.375 185.391 97.3125C185.016 99.2188 184.328 100.969 183.328 102.562C182.328 104.156 180.969 105.578 179.25 106.828C177.531 108.078 175.344 109.141 172.688 110.016C170.031 110.891 166.828 111.547 163.078 111.984C159.359 112.453 155 112.688 150 112.688H138C133.5 112.688 129.562 112.516 126.188 112.172C122.812 111.828 119.906 111.312 117.469 110.625C115.031 109.906 113.016 109.016 111.422 107.953C109.828 106.859 108.547 105.594 107.578 104.156C106.641 102.688 105.984 101.031 105.609 99.1875C105.234 97.3125 105.047 95.25 105.047 93H114.047C114.047 95.8125 114.453 98.0156 115.266 99.6094C116.078 101.203 117.422 102.406 119.297 103.219C121.172 104 123.625 104.5 126.656 104.719C129.719 104.906 133.5 105 138 105H150C155.25 105 159.609 104.75 163.078 104.25C166.547 103.75 169.312 102.953 171.375 101.859C173.438 100.766 174.891 99.3438 175.734 97.5938C176.578 95.8125 177 93.6562 177 91.125C177 88.5938 176.703 86.4844 176.109 84.7969C175.547 83.1094 174.406 81.7656 172.688 80.7656C171 79.7656 168.609 79.0625 165.516 78.6562C162.422 78.2188 158.375 78 153.375 78H141C135.5 78 130.781 77.7969 126.844 77.3906C122.938 76.9844 119.656 76.4062 117 75.6562C114.344 74.875 112.219 73.9219 110.625 72.7969C109.031 71.6406 107.812 70.3281 106.969 68.8594C106.156 67.3906 105.625 65.7656 105.375 63.9844C105.125 62.1719 105 60.2188 105 58.125C105 55.9375 105.188 53.9062 105.562 52.0312C105.969 50.1562 106.703 48.4688 107.766 46.9688C108.828 45.4375 110.281 44.0781 112.125 42.8906C113.969 41.7031 116.328 40.7188 119.203 39.9375C122.109 39.125 125.594 38.5156 129.656 38.1094C133.719 37.7031 138.5 37.5 144 37.5H153C157.5 37.5 161.438 37.6719 164.812 38.0156C168.188 38.3281 171.094 38.8438 173.531 39.5625C175.969 40.25 177.984 41.125 179.578 42.1875C181.203 43.2188 182.484 44.4688 183.422 45.9375C184.391 47.375 185.062 49.0156 185.438 50.8594C185.812 52.7031 186 54.75 186 57H177C177 54.1875 176.594 51.9844 175.781 50.3906C174.969 48.7969 173.625 47.6094 171.75 46.8281C169.875 46.0156 167.406 45.5156 164.344 45.3281C161.281 45.1094 157.5 45 153 45H144C138 45 133.062 45.2188 129.188 45.6562C125.312 46.0625 122.25 46.7656 120 47.7656C117.75 48.7656 116.188 50.1094 115.312 51.7969C114.438 53.4844 114 55.5938 114 58.125C114 59.6875 114.109 61.0781 114.328 62.2969C114.547 63.5156 114.984 64.5938 115.641 65.5312C116.328 66.4375 117.281 67.2031 118.5 67.8281C119.719 68.4531 121.328 68.9688 123.328 69.375C125.328 69.7812 127.766 70.0781 130.641 70.2656C133.547 70.4219 137 70.5 141 70.5H153.375ZM223.5 111L195 57H205.5L229.5 105L252 57H262.5L235.5 111L234 114C233.25 115.5 232.5 116.906 231.75 118.219C231.031 119.562 230.203 120.781 229.266 121.875C228.328 123 227.219 124 225.938 124.875C224.656 125.75 223.078 126.484 221.203 127.078C219.359 127.703 217.156 128.172 214.594 128.484C212.031 128.828 209 129 205.5 129V121.5C208.5 121.5 211.031 121.375 213.094 121.125C215.156 120.906 216.875 120.562 218.25 120.094C219.656 119.656 220.781 119.125 221.625 118.5C222.469 117.875 223.172 117.172 223.734 116.391C224.297 115.609 224.766 114.766 225.141 113.859C225.547 112.953 226 112 226.5 111H223.5ZM325.5 111V81C325.5 77.6562 325.25 74.8438 324.75 72.5625C324.25 70.25 323.25 68.3906 321.75 66.9844C320.25 65.5781 318.125 64.5625 315.375 63.9375C312.625 63.3125 309 63 304.5 63C299.625 63 295.625 63.3594 292.5 64.0781C289.406 64.7969 286.969 65.8125 285.188 67.125C283.406 68.4375 282.172 70.0156 281.484 71.8594C280.828 73.7031 280.5 75.75 280.5 78V111H271.5V57H280.5V66C281.156 64.4688 282.094 63.1562 283.312 62.0625C284.531 60.9375 285.906 59.9844 287.438 59.2031C288.969 58.4219 290.625 57.7969 292.406 57.3281C294.188 56.8281 295.969 56.4531 297.75 56.2031C299.531 55.9219 301.25 55.7344 302.906 55.6406C304.594 55.5469 306.125 55.5 307.5 55.5C311.5 55.5 314.938 55.75 317.812 56.25C320.719 56.75 323.172 57.4844 325.172 58.4531C327.203 59.4219 328.828 60.625 330.047 62.0625C331.266 63.5 332.203 65.1719 332.859 67.0781C333.547 68.9531 334 71.0625 334.219 73.4062C334.438 75.7188 334.547 78.25 334.547 81L334.5 111H325.5ZM345.094 83.625C345.094 78.0938 345.688 73.5156 346.875 69.8906C348.062 66.2656 349.969 63.3906 352.594 61.2656C355.219 59.1406 358.625 57.6562 362.812 56.8125C367 55.9375 372.094 55.5 378.094 55.5C384.094 55.5 389.188 55.9375 393.375 56.8125C397.562 57.6562 400.969 59.1406 403.594 61.2656C406.219 63.3906 408.125 66.2656 409.312 69.8906C410.5 73.5156 411.094 78.0938 411.094 83.625C411.094 89.1562 410.5 93.75 409.312 97.4062C408.125 101.062 406.219 103.969 403.594 106.125C400.969 108.281 397.562 109.812 393.375 110.719C389.188 111.594 384.094 112.031 378.094 112.031C372.094 112.031 367 111.594 362.812 110.719C358.625 109.812 355.219 108.281 352.594 106.125C349.969 103.969 348.062 101.062 346.875 97.4062C345.688 93.75 345.094 89.1562 345.094 83.625ZM354.094 83.625C354.094 86.625 354.203 89.2344 354.422 91.4531C354.641 93.6719 355.047 95.5781 355.641 97.1719C356.266 98.7656 357.125 100.062 358.219 101.062C359.312 102.062 360.75 102.859 362.531 103.453C364.312 104.047 366.469 104.453 369 104.672C371.562 104.891 374.594 105 378.094 105C381.094 105 383.766 104.938 386.109 104.812C388.484 104.656 390.547 104.328 392.297 103.828C394.078 103.328 395.594 102.625 396.844 101.719C398.094 100.781 399.094 99.5156 399.844 97.9219C400.625 96.3281 401.188 94.375 401.531 92.0625C401.906 89.7188 402.094 86.9062 402.094 83.625C402.094 80.4062 401.906 77.6719 401.531 75.4219C401.188 73.1406 400.625 71.2344 399.844 69.7031C399.094 68.1719 398.094 66.9688 396.844 66.0938C395.594 65.1875 394.078 64.5156 392.297 64.0781C390.547 63.6094 388.484 63.3125 386.109 63.1875C383.766 63.0625 381.094 63 378.094 63C375.094 63 372.406 63.0625 370.031 63.1875C367.688 63.3125 365.625 63.6094 363.844 64.0781C362.094 64.5156 360.594 65.1875 359.344 66.0938C358.094 66.9688 357.078 68.1719 356.297 69.7031C355.547 71.2344 354.984 73.1406 354.609 75.4219C354.266 77.6719 354.094 80.4062 354.094 83.625ZM454.594 55.5C460.594 55.5 465.688 55.9531 469.875 56.8594C474.062 57.7656 477.469 59.3125 480.094 61.5C482.719 63.6875 484.625 66.625 485.812 70.3125C487 73.9688 487.594 78.5625 487.594 84.0938C487.594 89.5312 487 94.0469 485.812 97.6406C484.625 101.234 482.719 104.094 480.094 106.219C477.469 108.344 474.062 109.844 469.875 110.719C465.688 111.594 460.594 112.031 454.594 112.031C450.312 112.031 446.734 111.797 443.859 111.328C440.984 110.859 438.625 110.281 436.781 109.594C434.969 108.875 433.578 108.109 432.609 107.297C431.672 106.484 431 105.719 430.594 105V129H421.594V57H430.594V62.0156C431 61.3906 431.672 60.7031 432.609 59.9531C433.578 59.1719 434.969 58.4531 436.781 57.7969C438.625 57.1406 440.984 56.5938 443.859 56.1562C446.734 55.7188 450.312 55.5 454.594 55.5ZM454.594 63C451.594 63 448.922 63.0781 446.578 63.2344C444.234 63.3906 442.172 63.7188 440.391 64.2188C438.609 64.6875 437.094 65.3906 435.844 66.3281C434.625 67.2344 433.625 68.4688 432.844 70.0312C432.062 71.5625 431.484 73.4688 431.109 75.75C430.766 78.0312 430.594 80.7656 430.594 83.9531C430.594 87.1719 430.766 89.9375 431.109 92.25C431.484 94.5625 432.062 96.5 432.844 98.0625C433.625 99.5938 434.625 100.828 435.844 101.766C437.094 102.672 438.609 103.375 440.391 103.875C442.172 104.344 444.234 104.656 446.578 104.812C448.922 104.938 451.594 105 454.594 105C458.094 105 461.109 104.891 463.641 104.672C466.203 104.453 468.375 104.062 470.156 103.5C471.938 102.938 473.375 102.156 474.469 101.156C475.594 100.156 476.453 98.8906 477.047 97.3594C477.672 95.7969 478.078 93.9375 478.266 91.7812C478.484 89.5938 478.594 87.0312 478.594 84.0938C478.594 81.1562 478.484 78.5938 478.266 76.4062C478.078 74.2188 477.672 72.3438 477.047 70.7812C476.453 69.2188 475.594 67.9375 474.469 66.9375C473.375 65.9375 471.938 65.1406 470.156 64.5469C468.375 63.9531 466.203 63.5469 463.641 63.3281C461.109 63.1094 458.094 63 454.594 63ZM529.594 86.3906C525.344 86.3906 521.609 86.3281 518.391 86.2031C515.172 86.0781 512.391 85.8281 510.047 85.4531C507.734 85.0469 505.797 84.4844 504.234 83.7656C502.703 83.0469 501.484 82.0938 500.578 80.9062C499.672 79.6875 499.031 78.2031 498.656 76.4531C498.281 74.6719 498.094 72.75 498.094 70.6875C498.094 67.875 498.688 65.5156 499.875 63.6094C501.062 61.6719 502.969 60.1094 505.594 58.9219C508.219 57.7031 511.625 56.8281 515.812 56.2969C520 55.7656 525.094 55.5 531.094 55.5C537.031 55.5 541.922 55.8125 545.766 56.4375C549.641 57.0625 552.703 58.0312 554.953 59.3438C557.234 60.625 558.828 62.25 559.734 64.2188C560.641 66.1875 561.094 68.5312 561.094 71.25H552.094C552.094 69.5625 551.766 68.1875 551.109 67.125C550.484 66.0625 549.375 65.2344 547.781 64.6406C546.188 64.0156 544.031 63.5938 541.312 63.375C538.625 63.125 535.219 63 531.094 63C526.594 63 522.812 63.0625 519.75 63.1875C516.688 63.3125 514.219 63.625 512.344 64.125C510.469 64.625 509.125 65.3906 508.312 66.4219C507.5 67.4531 507.094 68.875 507.094 70.6875C507.094 71.75 507.156 72.7969 507.281 73.8281C507.438 74.8281 507.766 75.6562 508.266 76.3125C508.766 76.9688 509.5 77.4688 510.469 77.8125C511.438 78.1562 512.75 78.4219 514.406 78.6094C516.094 78.7656 518.172 78.8594 520.641 78.8906C523.109 78.8906 526.094 78.8906 529.594 78.8906C533.844 78.8906 537.562 78.9844 540.75 79.1719C543.969 79.3594 546.75 79.6875 549.094 80.1562C551.438 80.625 553.375 81.3438 554.906 82.3125C556.438 83.2812 557.656 84.3438 558.562 85.5C559.5 86.625 560.156 87.9688 560.531 89.5312C560.906 91.0625 561.094 92.8438 561.094 94.875C561.094 96.9062 560.906 98.7344 560.531 100.359C560.156 101.953 559.5 103.375 558.562 104.625C557.625 105.844 556.344 106.906 554.719 107.812C553.125 108.688 551.109 109.406 548.672 109.969C546.234 110.5 543.312 110.891 539.906 111.141C536.531 111.422 532.594 111.562 528.094 111.562C522.469 111.562 517.734 111.281 513.891 110.719C510.078 110.156 507 109.266 504.656 108.047C502.312 106.797 500.625 105.188 499.594 103.219C498.594 101.25 498.094 98.8438 498.094 96H507.094C507.094 97.875 507.406 99.4062 508.031 100.594C508.688 101.75 509.812 102.656 511.406 103.312C513 103.969 515.141 104.422 517.828 104.672C520.547 104.891 523.969 105 528.094 105C531.844 105 535.031 104.922 537.656 104.766C540.312 104.578 542.531 104.297 544.312 103.922C546.094 103.547 547.5 103.094 548.531 102.562C549.562 102.031 550.344 101.391 550.875 100.641C551.406 99.8906 551.734 99.0625 551.859 98.1562C552.016 97.2188 552.094 96.1875 552.094 95.0625C552.094 94.0312 552.016 93.125 551.859 92.3438C551.734 91.5312 551.422 90.7344 550.922 89.9531C550.422 89.1406 549.688 88.5312 548.719 88.125C547.75 87.7188 546.422 87.3906 544.734 87.1406C543.078 86.8594 541.016 86.6719 538.547 86.5781C536.078 86.4531 533.094 86.3906 529.594 86.3906ZM604.594 86.3906C600.344 86.3906 596.609 86.3281 593.391 86.2031C590.172 86.0781 587.391 85.8281 585.047 85.4531C582.734 85.0469 580.797 84.4844 579.234 83.7656C577.703 83.0469 576.484 82.0938 575.578 80.9062C574.672 79.6875 574.031 78.2031 573.656 76.4531C573.281 74.6719 573.094 72.75 573.094 70.6875C573.094 67.875 573.688 65.5156 574.875 63.6094C576.062 61.6719 577.969 60.1094 580.594 58.9219C583.219 57.7031 586.625 56.8281 590.812 56.2969C595 55.7656 600.094 55.5 606.094 55.5C612.031 55.5 616.922 55.8125 620.766 56.4375C624.641 57.0625 627.703 58.0312 629.953 59.3438C632.234 60.625 633.828 62.25 634.734 64.2188C635.641 66.1875 636.094 68.5312 636.094 71.25H627.094C627.094 69.5625 626.766 68.1875 626.109 67.125C625.484 66.0625 624.375 65.2344 622.781 64.6406C621.188 64.0156 619.031 63.5938 616.312 63.375C613.625 63.125 610.219 63 606.094 63C601.594 63 597.812 63.0625 594.75 63.1875C591.688 63.3125 589.219 63.625 587.344 64.125C585.469 64.625 584.125 65.3906 583.312 66.4219C582.5 67.4531 582.094 68.875 582.094 70.6875C582.094 71.75 582.156 72.7969 582.281 73.8281C582.438 74.8281 582.766 75.6562 583.266 76.3125C583.766 76.9688 584.5 77.4688 585.469 77.8125C586.438 78.1562 587.75 78.4219 589.406 78.6094C591.094 78.7656 593.172 78.8594 595.641 78.8906C598.109 78.8906 601.094 78.8906 604.594 78.8906C608.844 78.8906 612.562 78.9844 615.75 79.1719C618.969 79.3594 621.75 79.6875 624.094 80.1562C626.438 80.625 628.375 81.3438 629.906 82.3125C631.438 83.2812 632.656 84.3438 633.562 85.5C634.5 86.625 635.156 87.9688 635.531 89.5312C635.906 91.0625 636.094 92.8438 636.094 94.875C636.094 96.9062 635.906 98.7344 635.531 100.359C635.156 101.953 634.5 103.375 633.562 104.625C632.625 105.844 631.344 106.906 629.719 107.812C628.125 108.688 626.109 109.406 623.672 109.969C621.234 110.5 618.312 110.891 614.906 111.141C611.531 111.422 607.594 111.562 603.094 111.562C597.469 111.562 592.734 111.281 588.891 110.719C585.078 110.156 582 109.266 579.656 108.047C577.312 106.797 575.625 105.188 574.594 103.219C573.594 101.25 573.094 98.8438 573.094 96H582.094C582.094 97.875 582.406 99.4062 583.031 100.594C583.688 101.75 584.812 102.656 586.406 103.312C588 103.969 590.141 104.422 592.828 104.672C595.547 104.891 598.969 105 603.094 105C606.844 105 610.031 104.922 612.656 104.766C615.312 104.578 617.531 104.297 619.312 103.922C621.094 103.547 622.5 103.094 623.531 102.562C624.562 102.031 625.344 101.391 625.875 100.641C626.406 99.8906 626.734 99.0625 626.859 98.1562C627.016 97.2188 627.094 96.1875 627.094 95.0625C627.094 94.0312 627.016 93.125 626.859 92.3438C626.734 91.5312 626.422 90.7344 625.922 89.9531C625.422 89.1406 624.688 88.5312 623.719 88.125C622.75 87.7188 621.422 87.3906 619.734 87.1406C618.078 86.8594 616.016 86.6719 613.547 86.5781C611.078 86.4531 608.094 86.3906 604.594 86.3906Z" fill="#F65A5A"/>
<path d="M712.885 24H659V28.1322H683.162L711.879 82.3705L683.162 136.614H659L405.5 140.746H712.885L743.786 82.3705L712.885 24Z" fill="#F65A5A"/>
</svg>
